<?xml version="1.0" encoding="UTF-8"?>
<svg xmlns:xlink="http://www.w3.org/1999/xlink" xmlns="http://www.w3.org/2000/svg" version="1.1" baseProfile="full" width="10152" height="10209">
  <style type="text/css">
        .guide { fill: red; }
        .valley-fold { stroke: black; stroke-dasharray: 9, 5; fill:none; }
        .mountain-fold { stroke: black; stroke-dasharray: 9, 5, 3, 5; fill: none; }
        .cut { stroke:black; fill: none; }
     </style>
  <g id="cone-1" transform="translate(2538,7670)">
    <path class="guide" d="M 57,0 A 57,57 0 1,1 57,-3 L 0,0 L 57,0 Z"/>
    <path class="cut" d="M 57,0 L 57,0 43,38 61,54 71,40 54,92 1,82 18,80 12,56 -27,50 -27,50 -54,19 -77,27 -70,43 -107,3 -72,-38 -79,-22 -55,-15 -30,-48 -30,-48 9,-56 13,-81 -3,-82 48,-95 68,-45 58,-58 40,-40 57,-3 L 0,0 L 57,0 Z"/>
  </g>
  <g id="cone-2" transform="translate(2538,2594)">
    <path class="guide" d="M 120,0 A 120,120 0 1,1 101,-64 L 52,-33 A 62,62 0 1,0 62,0 L 120,0 Z"/>
    <path class="cut" d="M 120,0 L 120,0 113,39 137,47 140,34 151,77 109,95 118,84 97,69 69,97 69,97 33,115 40,139 53,134 24,168 -13,144 0,145 0,120 -39,113 -39,113 -74,94 -89,113 -78,121 -123,117 -125,72 -118,83 -97,69 -115,33 -115,33 -119,-5 -144,-7 -144,6 -166,-32 -131,-60 -137,-47 -113,-39 -94,-74 -94,-74 -64,-101 -78,-122 -89,-114 -70,-154 -27,-142 -40,-139 -33,-115 6,-119 6,-119 44,-111 54,-134 41,-139 85,-147 100,-104 90,-113 74,-94 101,-64 L 52,-33 A 62,62 0 1,0 62,0 L 120,0 99,0 99,-9 105,-10 89,-17 76,-7 82,-8 82,0 62,0 M 28,82 L 68,54 M -87,0 L -73,47 M 28,-82 L -20,-85"/>
  </g>
  <g id="cone-3" transform="translate(2538,7670)">
    <path class="guide" d="M 202,0 A 202,202 0 1,1 7,-201 L 5,-144 A 144,144 0 1,0 144,0 L 202,0 Z"/>
    <path class="cut" d="M 202,0 L 202,0 198,37 223,41 225,29 243,65 209,87 213,76 190,67 174,101 174,101 152,132 171,148 179,139 177,179 136,181 146,173 130,154 99,175 99,175 65,191 73,214 84,210 62,244 27,225 39,223 34,199 -2,202 -2,202 -39,198 -44,222 -32,224 -68,242 -90,208 -78,212 -70,189 -103,173 -103,173 -133,151 -150,170 -141,177 -181,174 -182,134 -175,144 -156,128 -176,97 -176,97 -191,63 -215,71 -211,82 -244,59 -225,24 -224,36 -199,32 -201,-4 -201,-4 -197,-41 -222,-47 -224,-35 -241,-71 -207,-92 -211,-81 -188,-72 -172,-105 -172,-105 -149,-135 -168,-152 -176,-143 -172,-183 -132,-184 -142,-177 -126,-157 -95,-178 -95,-178 -61,-192 -68,-216 -79,-212 -56,-245 -21,-226 -33,-224 -29,-199 7,-201 L 5,-144 A 144,144 0 1,0 144,0 L 202,0 181,0 181,-17 186,-18 169,-33 158,-15 163,-16 164,0 144,0 M 147,83 L 163,46 M 44,163 L 81,148 M -85,146 L -48,162 M -164,42 L -149,79 M -145,-86 L -161,-50 M -40,-164 L -78,-150"/>
  </g>
  <g id="cone-4" transform="translate(2538,2594)">
    <path class="guide" d="M 339,0 A 339,339 0 1,1 -328,-85 L -273,-71 A 282,282 0 1,0 282,0 L 339,0 Z"/>
    <path class="cut" d="M 339,0 L 339,0 337,36 362,39 363,28 385,59 355,83 357,72 333,67 323,103 323,103 310,137 333,147 338,137 348,174 312,187 318,178 296,165 277,196 277,196 254,225 273,242 280,233 279,272 241,274 249,266 232,248 204,271 204,271 173,292 186,313 196,307 183,344 146,334 156,329 145,307 111,321 111,321 76,331 82,355 93,352 70,383 37,362 49,361 45,336 9,339 9,339 -27,338 -29,363 -18,364 -49,386 -74,357 -63,359 -58,334 -94,326 -94,326 -129,314 -138,337 -128,341 -164,353 -179,317 -169,323 -157,301 -189,282 -189,282 -218,260 -234,279 -226,286 -264,286 -267,248 -259,256 -241,238 -266,211 -266,211 -287,181 -308,194 -302,204 -339,192 -330,155 -325,165 -303,154 -317,120 -317,120 -329,85 -353,91 -350,102 -381,80 -361,47 -360,58 -335,54 -339,18 -339,18 -339,-18 -364,-19 -364,-8 -387,-39 -359,-64 -361,-53 -336,-49 -328,-85 L -273,-71 A 282,282 0 1,0 282,0 L 339,0 319,0 318,-31 324,-31 305,-60 295,-29 301,-29 302,0 282,0 M 298,74 L 304,40 M 249,179 L 268,149 M 166,258 L 194,238 M 59,301 L 92,293 M -56,302 L -21,306 M -163,260 L -133,277 M -248,181 L -226,208 M -297,77 L -286,110 M -305,-37 L -307,-3"/>
  </g>
  <g id="cone-5" transform="translate(2538,7670)">
    <path class="guide" d="M 709,0 A 709,709 0 0,1 -140,695 L -129,639 A 652,652 0 0,0 652,0 L 709,0 Z"/>
    <path class="cut" d="M 709,0 L 709,0 708,36 733,37 734,27 757,55 730,81 731,70 706,67 702,104 702,104 695,140 720,145 722,134 741,166 710,187 713,177 688,171 679,206 679,206 667,241 691,249 694,239 708,273 675,290 679,280 656,270 641,304 641,304 624,336 646,348 652,338 660,375 625,386 630,376 609,364 589,394 589,394 568,424 588,439 595,431 598,468 561,473 568,465 549,449 525,477 525,477 500,503 517,521 525,513 523,551 486,551 494,544 477,525 449,549 449,549 420,571 435,592 444,585 436,621 399,616 408,610 394,589 363,609 363,609 331,627 343,649 353,644 340,679 304,668 314,664 303,641 270,656 270,656 236,669 244,693 254,689 236,722 203,706 213,703 206,679 170,689 170,689 135,696 139,721 150,719 128,749 97,728 107,726 104,702 67,706 67,706 31,709 32,734 43,733 16,759 -11,734 0,734 0,709 -36,708 -36,708 -73,706 -75,730 -65,732 -95,753 -118,725 -108,726 -104,702 -140,695 L -129,639 A 652,652 0 0,0 652,0 L 709,0 689,0 686,-67 692,-68 668,-132 663,-65 669,-65 672,0 652,0 M 673,70 L 676,38 M 653,177 L 661,146 M 616,280 L 629,250 M 563,375 L 581,347 M 496,460 L 518,436 M 416,534 L 441,513 M 325,594 L 353,577 M 225,638 L 256,627 M 120,666 L 152,659 M 12,677 L 44,675 M -96,670 L -64,674"/>
  </g>
  <g id="cone-6" transform="scale(1.0575,0.5751131759798933)">
    <rect class="guide" x="50" y="50" width="1200" height="99"/>
    <path class="cut" d="M 50,50 H 1250 M 1250,50 V 149 H 50 L 50,50 50,85 25,85 25,75 0,100 25,125 25,115 50,115 50,150 M 85,75 L 115,75 M 185,75 L 215,75 M 285,75 L 315,75 M 385,75 L 415,75 M 485,75 L 515,75 M 585,75 L 615,75 M 685,75 L 715,75 M 785,75 L 815,75 M 885,75 L 915,75 M 985,75 L 1015,75 M 1085,75 L 1115,75 M 1185,75 L 1215,75 M 85,124 L 115,124 M 185,124 L 215,124 M 285,124 L 315,124 M 385,124 L 415,124 M 485,124 L 515,124 M 585,124 L 615,124 M 685,124 L 715,124 M 785,124 L 815,124 M 885,124 L 915,124 M 985,124 L 1015,124 M 1085,124 L 1115,124 M 1185,124 L 1215,124 M 1225,85 L 1225,115"/>
  </g>
  <g id="cone-7" transform="translate(7614,7670)">
    <path class="guide" d="M 709,0 A 709,709 0 0,1 -140,695 L -129,639 A 652,652 0 0,0 652,0 L 709,0 Z"/>
    <path class="cut" d="M 709,0 L 709,0 708,36 733,37 734,27 757,55 730,81 731,70 706,67 702,104 702,104 695,140 720,145 722,134 741,166 710,187 713,177 688,171 679,206 679,206 667,241 691,249 694,239 708,273 675,290 679,280 656,270 641,304 641,304 624,336 646,348 652,338 660,375 625,386 630,376 609,364 589,394 589,394 568,424 588,439 595,431 598,468 561,473 568,465 549,449 525,477 525,477 500,503 517,521 525,513 523,551 486,551 494,544 477,525 449,549 449,549 420,571 435,592 444,585 436,621 399,616 408,610 394,589 363,609 363,609 331,627 343,649 353,644 340,679 304,668 314,664 303,641 270,656 270,656 236,669 244,693 254,689 236,722 203,706 213,703 206,679 170,689 170,689 135,696 139,721 150,719 128,749 97,728 107,726 104,702 67,706 67,706 31,709 32,734 43,733 16,759 -11,734 0,734 0,709 -36,708 -36,708 -73,706 -75,730 -65,732 -95,753 -118,725 -108,726 -104,702 -140,695 L -129,639 A 652,652 0 0,0 652,0 L 709,0 689,0 686,-67 692,-68 668,-132 663,-65 669,-65 672,0 652,0 M 673,70 L 676,38 M 653,177 L 661,146 M 616,280 L 629,250 M 563,375 L 581,347 M 496,460 L 518,436 M 416,534 L 441,513 M 325,594 L 353,577 M 225,638 L 256,627 M 120,666 L 152,659 M 12,677 L 44,675 M -96,670 L -64,674"/>
  </g>
  <g id="cone-8" transform="translate(7614,2594)">
    <path class="guide" d="M 339,0 A 339,339 0 1,1 -328,-85 L -273,-71 A 282,282 0 1,0 282,0 L 339,0 Z"/>
    <path class="cut" d="M 339,0 L 339,0 337,36 362,39 363,28 385,59 355,83 357,72 333,67 323,103 323,103 310,137 333,147 338,137 348,174 312,187 318,178 296,165 277,196 277,196 254,225 273,242 280,233 279,272 241,274 249,266 232,248 204,271 204,271 173,292 186,313 196,307 183,344 146,334 156,329 145,307 111,321 111,321 76,331 82,355 93,352 70,383 37,362 49,361 45,336 9,339 9,339 -27,338 -29,363 -18,364 -49,386 -74,357 -63,359 -58,334 -94,326 -94,326 -129,314 -138,337 -128,341 -164,353 -179,317 -169,323 -157,301 -189,282 -189,282 -218,260 -234,279 -226,286 -264,286 -267,248 -259,256 -241,238 -266,211 -266,211 -287,181 -308,194 -302,204 -339,192 -330,155 -325,165 -303,154 -317,120 -317,120 -329,85 -353,91 -350,102 -381,80 -361,47 -360,58 -335,54 -339,18 -339,18 -339,-18 -364,-19 -364,-8 -387,-39 -359,-64 -361,-53 -336,-49 -328,-85 L -273,-71 A 282,282 0 1,0 282,0 L 339,0 319,0 318,-31 324,-31 305,-60 295,-29 301,-29 302,0 282,0 M 298,74 L 304,40 M 249,179 L 268,149 M 166,258 L 194,238 M 59,301 L 92,293 M -56,302 L -21,306 M -163,260 L -133,277 M -248,181 L -226,208 M -297,77 L -286,110 M -305,-37 L -307,-3"/>
  </g>
  <g id="cone-9" transform="translate(7614,7670)">
    <path class="guide" d="M 202,0 A 202,202 0 1,1 7,-201 L 5,-144 A 144,144 0 1,0 144,0 L 202,0 Z"/>
    <path class="cut" d="M 202,0 L 202,0 198,37 223,41 225,29 243,65 209,87 213,76 190,67 174,101 174,101 152,132 171,148 179,139 177,179 136,181 146,173 130,154 99,175 99,175 65,191 73,214 84,210 62,244 27,225 39,223 34,199 -2,202 -2,202 -39,198 -44,222 -32,224 -68,242 -90,208 -78,212 -70,189 -103,173 -103,173 -133,151 -150,170 -141,177 -181,174 -182,134 -175,144 -156,128 -176,97 -176,97 -191,63 -215,71 -211,82 -244,59 -225,24 -224,36 -199,32 -201,-4 -201,-4 -197,-41 -222,-47 -224,-35 -241,-71 -207,-92 -211,-81 -188,-72 -172,-105 -172,-105 -149,-135 -168,-152 -176,-143 -172,-183 -132,-184 -142,-177 -126,-157 -95,-178 -95,-178 -61,-192 -68,-216 -79,-212 -56,-245 -21,-226 -33,-224 -29,-199 7,-201 L 5,-144 A 144,144 0 1,0 144,0 L 202,0 181,0 181,-17 186,-18 169,-33 158,-15 163,-16 164,0 144,0 M 147,83 L 163,46 M 44,163 L 81,148 M -85,146 L -48,162 M -164,42 L -149,79 M -145,-86 L -161,-50 M -40,-164 L -78,-150"/>
  </g>
  <g id="cone-10" transform="translate(7614,2594)">
    <path class="guide" d="M 120,0 A 120,120 0 1,1 101,-64 L 52,-33 A 62,62 0 1,0 62,0 L 120,0 Z"/>
    <path class="cut" d="M 120,0 L 120,0 113,39 137,47 140,34 151,77 109,95 118,84 97,69 69,97 69,97 33,115 40,139 53,134 24,168 -13,144 0,145 0,120 -39,113 -39,113 -74,94 -89,113 -78,121 -123,117 -125,72 -118,83 -97,69 -115,33 -115,33 -119,-5 -144,-7 -144,6 -166,-32 -131,-60 -137,-47 -113,-39 -94,-74 -94,-74 -64,-101 -78,-122 -89,-114 -70,-154 -27,-142 -40,-139 -33,-115 6,-119 6,-119 44,-111 54,-134 41,-139 85,-147 100,-104 90,-113 74,-94 101,-64 L 52,-33 A 62,62 0 1,0 62,0 L 120,0 99,0 99,-9 105,-10 89,-17 76,-7 82,-8 82,0 62,0 M 28,82 L 68,54 M -87,0 L -73,47 M 28,-82 L -20,-85"/>
  </g>
  <g id="cone-11" transform="translate(7614,7670)">
    <path class="guide" d="M 57,0 A 57,57 0 1,1 57,-3 L 0,0 L 57,0 Z"/>
    <path class="cut" d="M 57,0 L 57,0 43,38 61,54 71,40 54,92 1,82 18,80 12,56 -27,50 -27,50 -54,19 -77,27 -70,43 -107,3 -72,-38 -79,-22 -55,-15 -30,-48 -30,-48 9,-56 13,-81 -3,-82 48,-95 68,-45 58,-58 40,-40 57,-3 L 0,0 L 57,0 Z"/>
  </g>
</svg>