<?xml version="1.0" encoding="UTF-8" standalone="no"?>
<svg
   xmlns:dc="http://purl.org/dc/elements/1.1/"
   xmlns:cc="http://creativecommons.org/ns#"
   xmlns:rdf="http://www.w3.org/1999/02/22-rdf-syntax-ns#"
   xmlns:svg="http://www.w3.org/2000/svg"
   xmlns="http://www.w3.org/2000/svg"
   xmlns:sodipodi="http://sodipodi.sourceforge.net/DTD/sodipodi-0.dtd"
   xmlns:inkscape="http://www.inkscape.org/namespaces/inkscape"
   version="1.1"
   width="1645.5923"
   height="1500.4545"
   id="svg2985"
   inkscape:version="0.48.2 r9819"
   sodipodi:docname="cone-sphere-5.svg">
  <metadata
     id="metadata3048">
    <rdf:RDF>
      <cc:Work
         rdf:about="">
        <dc:format>image/svg+xml</dc:format>
        <dc:type
           rdf:resource="http://purl.org/dc/dcmitype/StillImage" />
        <dc:title />
      </cc:Work>
    </rdf:RDF>
  </metadata>
  <defs
     id="defs3046" />
  <sodipodi:namedview
     pagecolor="#ffffff"
     bordercolor="#666666"
     borderopacity="1"
     objecttolerance="10"
     gridtolerance="10"
     guidetolerance="10"
     inkscape:pageopacity="0"
     inkscape:pageshadow="2"
     inkscape:window-width="1920"
     inkscape:window-height="1138"
     id="namedview3044"
     showgrid="false"
     fit-margin-top="10"
     fit-margin-left="10"
     fit-margin-right="10"
     fit-margin-bottom="10"
     inkscape:zoom="0.47"
     inkscape:cx="1272.7397"
     inkscape:cy="636.14509"
     inkscape:window-x="-8"
     inkscape:window-y="-8"
     inkscape:window-maximized="1"
     inkscape:current-layer="cone-7" />
  <style
     type="text/css"
     id="style2987">
        .guide { fill: none; }
        .valley-fold { stroke: black; stroke-dasharray: 9, 5; fill:none; }
        .mountain-fold { stroke: black; stroke-dasharray: 9, 5, 3, 5; fill: none; }
        .cut { stroke:black; fill: none; }
     </style>
  <g
     id="cone-1"
     transform="translate(320.21836,788.6686)">
    <path
       class="guide"
       d="m 57,0 a 57,57 0 1 1 0,-3 L 0,0 57,0 z"
       id="path2990"
       inkscape:connector-curvature="0"
       style="fill:none" />
    <path
       class="cut"
       d="M 57,0 57,0 43,38 61,54 71,40 54,92 1,82 18,80 12,56 l -39,-6 0,0 -27,-31 -23,8 7,16 -37,-40 35,-41 -7,16 24,7 25,-33 0,0 39,-8 4,-25 -16,-1 51,-13 20,50 L 58,-58 40,-40 57,-3 0,0 57,0 z"
       id="path2992"
       inkscape:connector-curvature="0"
       style="fill:none;stroke:#000000" />
  </g>
  <g
     id="cone-2"
     transform="translate(434.66934,237.73721)">
    <path
       class="guide"
       d="M 120,0 A 120,120 0 1 1 101,-64 L 52,-33 A 62,62 0 1 0 62,0 l 58,0 z"
       id="path2995"
       inkscape:connector-curvature="0"
       style="fill:none" />
    <path
       class="cut"
       d="m 120,0 0,0 -7,39 24,8 3,-13 11,43 -42,18 9,-11 -21,-15 -28,28 0,0 -36,18 7,24 13,-5 -29,34 -37,-24 13,1 0,-25 -39,-7 0,0 -35,-19 -15,19 11,8 -45,-4 -2,-45 7,11 21,-14 -18,-36 0,0 -4,-38 -25,-2 0,13 -22,-38 35,-28 -6,13 24,8 19,-35 0,0 30,-27 -14,-21 -11,8 19,-40 43,12 -13,3 7,24 39,-4 0,0 38,8 10,-23 -13,-5 44,-8 15,43 -10,-9 -16,19 27,30 -49,31 A 62,62 0 1 0 62,0 l 58,0 -21,0 0,-9 6,-1 -16,-7 -13,10 6,-1 0,8 -20,0 M 28,82 68,54 M -87,0 -73,47 M 28,-82 -20,-85"
       id="path2997"
       inkscape:connector-curvature="0"
       style="fill:none;stroke:#000000" />
  </g>
  <g
     id="cone-3"
     transform="translate(307.21836,799.6686)">
    <path
       class="guide"
       d="M 202,0 A 202,202 0 1 1 7,-201 l -2,57 A 144,144 0 1 0 144,0 l 58,0 z"
       id="path3000"
       inkscape:connector-curvature="0"
       style="fill:none" />
    <path
       class="cut"
       d="m 202,0 0,0 -4,37 25,4 2,-12 18,36 -34,22 4,-11 -23,-9 -16,34 0,0 -22,31 19,16 8,-9 -2,40 -41,2 10,-8 -16,-19 -31,21 0,0 -34,16 8,23 11,-4 -22,34 -35,-19 12,-2 -5,-24 -36,3 0,0 -37,-4 -5,24 12,2 -36,18 -22,-34 12,4 8,-23 -33,-16 0,0 -30,-22 -17,19 9,7 -40,-3 -1,-40 7,10 19,-16 -20,-31 0,0 -15,-34 -24,8 4,11 -33,-23 19,-35 1,12 25,-4 -2,-36 0,0 4,-37 -25,-6 -2,12 -17,-36 34,-21 -4,11 23,9 16,-33 0,0 23,-30 -19,-17 -8,9 4,-40 40,-1 -10,7 16,20 31,-21 0,0 34,-14 -7,-24 -11,4 23,-33 35,19 -12,2 4,25 36,-2 -2,57 A 144,144 0 1 0 144,0 l 58,0 -21,0 0,-17 5,-1 -17,-15 -11,18 5,-1 1,16 -20,0 m 3,83 16,-37 M 44,163 81,148 m -166,-2 37,16 m -116,-120 15,37 m 4,-165 -16,36 m 121,-114 -38,14"
       id="path3002"
       inkscape:connector-curvature="0"
       style="fill:none;stroke:#000000" />
  </g>
  <g
     id="cone-4"
     transform="translate(427.66934,184.73721)">
    <path
       class="guide"
       d="m 339,0 a 339,339 0 1 1 -667,-85 l 55,14 A 282,282 0 1 0 282,0 l 57,0 z"
       id="path3005"
       inkscape:connector-curvature="0"
       style="fill:none" />
    <path
       class="cut"
       d="m 339,0 0,0 -2,36 25,3 1,-11 22,31 -30,24 2,-11 -24,-5 -10,36 0,0 -13,34 23,10 5,-10 10,37 -36,13 6,-9 -22,-13 -19,31 0,0 -23,29 19,17 7,-9 -1,39 -38,2 8,-8 -17,-18 -28,23 0,0 -31,21 13,21 10,-6 -13,37 -37,-10 10,-5 -11,-22 -34,14 0,0 -35,10 6,24 11,-3 -23,31 -33,-21 12,-1 -4,-25 -36,3 0,0 -36,-1 -2,25 11,1 -31,22 -25,-29 11,2 5,-25 -36,-8 0,0 -35,-12 -9,23 10,4 -36,12 -15,-36 10,6 12,-22 -32,-19 0,0 -29,-22 -16,19 8,7 -38,0 -3,-38 8,8 18,-18 -25,-27 0,0 -21,-30 -21,13 6,10 -37,-12 9,-37 5,10 22,-11 -14,-34 0,0 -12,-35 -24,6 3,11 -31,-22 20,-33 1,11 25,-4 -4,-36 0,0 0,-36 -25,-1 0,11 -23,-31 28,-25 -2,11 25,4 8,-36 55,14 A 282,282 0 1 0 282,0 l 57,0 -20,0 -1,-31 6,0 -19,-29 -10,31 6,0 1,29 -20,0 m 16,74 6,-34 m -55,139 19,-30 m -102,109 28,-20 m -135,63 33,-8 m -148,9 35,4 m -142,-46 30,17 m -115,-96 22,27 m -71,-131 11,33 m -19,-147 -2,34"
       id="path3007"
       inkscape:connector-curvature="0"
       style="fill:none;stroke:#000000" />
  </g>
  <g
     id="cone-5"
     transform="matrix(0.92798501,0.37261754,-0.37261754,0.92798501,953.10164,221.63322)">
    <path
       class="guide"
       d="m 709,0 a 709,709 0 0 1 -849,695 l 11,-56 A 652,652 0 0 0 652,0 l 57,0 z"
       id="path3010"
       inkscape:connector-curvature="0"
       style="fill:none" />
    <path
       class="cut"
       d="m 709,0 0,0 -1,36 25,1 1,-10 23,28 -27,26 1,-11 -25,-3 -4,37 0,0 -7,36 25,5 2,-11 19,32 -31,21 3,-10 -25,-6 -9,35 0,0 -12,35 24,8 3,-10 14,34 -33,17 4,-10 -23,-10 -15,34 0,0 -17,32 22,12 6,-10 8,37 -35,11 5,-10 -21,-12 -20,30 0,0 -21,30 20,15 7,-8 3,37 -37,5 7,-8 -19,-16 -24,28 0,0 -25,26 17,18 8,-8 -2,38 -37,0 8,-7 -17,-19 -28,24 0,0 -29,22 15,21 9,-7 -8,36 -37,-5 9,-6 -14,-21 -31,20 0,0 -32,18 12,22 10,-5 -13,35 -36,-11 10,-4 -11,-23 -33,15 0,0 -34,13 8,24 10,-4 -18,33 -33,-16 10,-3 -7,-24 -36,10 0,0 -35,7 4,25 11,-2 -22,30 -31,-21 10,-2 -3,-24 -37,4 0,0 -36,3 1,25 11,-1 -27,26 -27,-25 11,0 0,-25 -36,-1 0,0 -37,-2 -2,24 10,2 -30,21 -23,-28 10,1 4,-24 -36,-7 11,-56 A 652,652 0 0 0 652,0 l 57,0 -20,0 -3,-67 6,-1 -24,-64 -5,67 6,0 3,65 -20,0 m 21,70 3,-32 m -23,139 8,-31 m -45,134 13,-30 m -66,125 18,-28 m -85,113 22,-24 m -102,98 25,-21 m -116,81 28,-17 m -128,61 31,-11 m -136,39 32,-7 m -140,18 32,-2 m -140,-5 32,4"
       id="path3012"
       inkscape:connector-curvature="0"
       style="fill:none;stroke:#000000" />
  </g>
  <g
     id="cone-6"
     transform="matrix(1.0575,0,0,0.57511318,10.38993,-18.365729)">
    <rect
       class="guide"
       x="50"
       y="50"
       width="1200"
       height="99"
       id="rect3015"
       style="fill:none" />
    <path
       class="cut"
       d="m 50,50 h 1200 m 0,0 v 99 H 50 l 0,-99 0,35 -25,0 0,-10 -25,25 25,25 0,-10 25,0 0,35 m 35,-75 30,0 m 70,0 30,0 m 70,0 30,0 m 70,0 30,0 m 70,0 30,0 m 70,0 30,0 m 70,0 30,0 m 70,0 30,0 m 70,0 30,0 m 70,0 30,0 m 70,0 30,0 m 70,0 30,0 m -1130,49 30,0 m 70,0 30,0 m 70,0 30,0 m 70,0 30,0 m 70,0 30,0 m 70,0 30,0 m 70,0 30,0 m 70,0 30,0 m 70,0 30,0 m 70,0 30,0 m 70,0 30,0 m 70,0 30,0 m 10,-39 0,30"
       id="path3017"
       inkscape:connector-curvature="0"
       style="fill:none;stroke:#000000" />
  </g>
  <g
     id="cone-7"
     transform="translate(917.90276,781.49474)">
    <path
       class="guide"
       d="m 709,0 a 709,709 0 0 1 -849,695 l 11,-56 A 652,652 0 0 0 652,0 l 57,0 z"
       id="path3020"
       inkscape:connector-curvature="0"
       style="fill:none" />
    <path
       class="cut"
       d="m 676.44156,32.319017 0,0 -17.45962,31.4986 21.73337,12.39599 5.49105,-8.41715 7.52897,35.444533 -35.93777,10.65254 5.95138,-9.3049 -20.81271,-14.171483 -20.5832,31.005353 0,0 -22.7861,28.73662 19.89205,15.94699 6.83912,-8.84457 2.13666,37.1542 -37.18711,4.37249 7.26654,-7.49649 -19.43172,-16.83474 -24.10127,26.92822 0,0 -26.76452,25.54722 17.62331,18.1499 7.26654,-7.49649 -3.22273,36.62805 -37.12129,-0.0992 8.15428,-7.03616 -15.8149,-19.46506 -28.96743,23.27848 0,0 -29.82227,20.58233 14.0065,20.78023 9.92978,-6.1155 -9.93021,36.52932 -36.13481,-6.34632 9.04204,-6.57583 -13.11875,-20.3199 -31.56486,17.42585 0,0 -32.4526,16.96551 10.85002,22.52282 9.89687,-3.87968 -14.36895,34.22767 -35.14833,-12.59346 9.89687,-3.87968 -9.50193,-22.95023 -34.19519,13.80903 0,0 -34.16227,11.5732 6.80578,23.80507 10.78462,-3.41934 -19.26802,32.81376 -32.84668,-17.0322 10.32429,-2.5316 -6.34545,-24.69281 -35.90486,8.41671 0,0 -35.87194,6.1809 3.64929,25.54765 11.21204,-2.07127 -23.67385,28.2763 -30.54503,-21.47095 10.75171,-1.18352 -2.76155,-25.08732 -36.726784,3.48474 0,0 -36.69387,1.24891 0.52572,25.05441 11.17913,0.16456 -27.65227,25.0869 -26.8952996,-26.3371 10.7187996,1.0523 0.82236,-25.48183 -36.20063,-1.87466 0,0 -36.167723,-4.11049 -3.945929,24.98859 10.718799,1.05231 -31.170346,21.00975 -21.930408,-29.39485 10.258469,1.94005 4.833678,-24.52826 -36.562226,-7.69439 0,0 -34.29349,-9.8973 -7.95725,24.03501 10.68589,3.28814 -33.34035,16.50518 -17.85326,-32.91293 9.79814,2.8278 8.38467,-22.68694 -34.688,-13.48121 0,0 -33.33991,-13.90862 -10.6205,22.65403 10.22556,4.17588 -35.93777,10.65254 -12.46095,-34.6226 9.76522,5.06363 11.50825,-22.19371 -31.4986,-17.45961 0,0 -31.92602,-18.8077 -12.82341,20.38529 7.95682,6.3788 -36.29936,4.83281 -7.52897,-35.44453 8.41715,5.49105 14.5989,-19.46463 -28.73662,-22.78611 35.5437,-44.65026 A 652,652 0 0 0 625.83992,6.0802174 l 50.60164,26.2387996 -17.75496,-9.2066 28.17885,-60.8601 5.78682,1.87423 8.15515,-67.863787 -35.28083,57.177467 5.32648,2.76198 -27.25818,59.08461 -17.75497,-9.2065996 m -13.58037,71.8092896 17.3938,-27.02695 M 545.24931,163.67195 566.62152,139.8344 m -101.63285,98.2434 25.35062,-20.64816 m -116.13259,80.58674 28.8687,-16.57101 m -127.47584,61.1875 30.57837,-11.1787 m -135.66262,40.04567 31.86063,-7.13446 m -140.265484,18.50934 32.68255,-2.20249 m -141.711859,-4.76957 32.583819,4.50499 m -138.686596,-27.98267 31.63025,8.51631 m -132.57066,-48.46669 29.3286,12.95505 m -121.98307,-68.8849 26.56662,18.28154"
       id="path3022"
       inkscape:connector-curvature="0"
       style="fill:none;stroke:#000000;stroke-width:1" />
  </g>
  <g
     id="cone-8"
     transform="translate(1204.8654,152.73721)">
    <path
       class="guide"
       d="m 339,0 a 339,339 0 1 1 -667,-85 l 55,14 A 282,282 0 1 0 282,0 l 57,0 z"
       id="path3025"
       inkscape:connector-curvature="0"
       style="fill:none" />
    <path
       class="cut"
       d="m 339,0 0,0 -2,36 25,3 1,-11 22,31 -30,24 2,-11 -24,-5 -10,36 0,0 -13,34 23,10 5,-10 10,37 -36,13 6,-9 -22,-13 -19,31 0,0 -23,29 19,17 7,-9 -1,39 -38,2 8,-8 -17,-18 -28,23 0,0 -31,21 13,21 10,-6 -13,37 -37,-10 10,-5 -11,-22 -34,14 0,0 -35,10 6,24 11,-3 -23,31 -33,-21 12,-1 -4,-25 -36,3 0,0 -36,-1 -2,25 11,1 -31,22 -25,-29 11,2 5,-25 -36,-8 0,0 -35,-12 -9,23 10,4 -36,12 -15,-36 10,6 12,-22 -32,-19 0,0 -29,-22 -16,19 8,7 -38,0 -3,-38 8,8 18,-18 -25,-27 0,0 -21,-30 -21,13 6,10 -37,-12 9,-37 5,10 22,-11 -14,-34 0,0 -12,-35 -24,6 3,11 -31,-22 20,-33 1,11 25,-4 -4,-36 0,0 0,-36 -25,-1 0,11 -23,-31 28,-25 -2,11 25,4 8,-36 55,14 A 282,282 0 1 0 282,0 l 57,0 -20,0 -1,-31 6,0 -19,-29 -10,31 6,0 1,29 -20,0 m 16,74 6,-34 m -55,139 19,-30 m -102,109 28,-20 m -135,63 33,-8 m -148,9 35,4 m -142,-46 30,17 m -115,-96 22,27 m -71,-131 11,33 m -19,-147 -2,34"
       id="path3027"
       inkscape:connector-curvature="0"
       style="fill:none;stroke:#000000" />
  </g>
  <g
     id="cone-9"
     transform="translate(889.0517,607.899)">
    <path
       class="guide"
       d="M 202,0 A 202,202 0 1 1 7,-201 l -2,57 A 144,144 0 1 0 144,0 l 58,0 z"
       id="path3030"
       inkscape:connector-curvature="0"
       style="fill:none" />
    <path
       class="cut"
       d="m 202,0 0,0 -4,37 25,4 2,-12 18,36 -34,22 4,-11 -23,-9 -16,34 0,0 -22,31 19,16 8,-9 -2,40 -41,2 10,-8 -16,-19 -31,21 0,0 -34,16 8,23 11,-4 -22,34 -35,-19 12,-2 -5,-24 -36,3 0,0 -37,-4 -5,24 12,2 -36,18 -22,-34 12,4 8,-23 -33,-16 0,0 -30,-22 -17,19 9,7 -40,-3 -1,-40 7,10 19,-16 -20,-31 0,0 -15,-34 -24,8 4,11 -33,-23 19,-35 1,12 25,-4 -2,-36 0,0 4,-37 -25,-6 -2,12 -17,-36 34,-21 -4,11 23,9 16,-33 0,0 23,-30 -19,-17 -8,9 4,-40 40,-1 -10,7 16,20 31,-21 0,0 34,-14 -7,-24 -11,4 23,-33 35,19 -12,2 4,25 36,-2 -2,57 A 144,144 0 1 0 144,0 l 58,0 -21,0 0,-17 5,-1 -17,-15 -11,18 5,-1 1,16 -20,0 m 3,83 16,-37 M 44,163 81,148 m -166,-2 37,16 m -116,-120 15,37 m 4,-165 -16,36 m 121,-114 -38,14"
       id="path3032"
       inkscape:connector-curvature="0"
       style="fill:none;stroke:#000000" />
  </g>
  <g
     id="cone-10"
     transform="translate(1184.8654,232.73721)">
    <path
       class="guide"
       d="M 120,0 A 120,120 0 1 1 101,-64 L 52,-33 A 62,62 0 1 0 62,0 l 58,0 z"
       id="path3035"
       inkscape:connector-curvature="0"
       style="fill:none" />
    <path
       class="cut"
       d="m 120,0 0,0 -7,39 24,8 3,-13 11,43 -42,18 9,-11 -21,-15 -28,28 0,0 -36,18 7,24 13,-5 -29,34 -37,-24 13,1 0,-25 -39,-7 0,0 -35,-19 -15,19 11,8 -45,-4 -2,-45 7,11 21,-14 -18,-36 0,0 -4,-38 -25,-2 0,13 -22,-38 35,-28 -6,13 24,8 19,-35 0,0 30,-27 -14,-21 -11,8 19,-40 43,12 -13,3 7,24 39,-4 0,0 38,8 10,-23 -13,-5 44,-8 15,43 -10,-9 -16,19 27,30 -49,31 A 62,62 0 1 0 62,0 l 58,0 -21,0 0,-9 6,-1 -16,-7 -13,10 6,-1 0,8 -20,0 M 28,82 68,54 M -87,0 -73,47 M 28,-82 -20,-85"
       id="path3037"
       inkscape:connector-curvature="0"
       style="fill:none;stroke:#000000" />
  </g>
  <g
     id="cone-11"
     transform="translate(902.0517,589.899)">
    <path
       class="guide"
       d="m 57,0 a 57,57 0 1 1 0,-3 L 0,0 57,0 z"
       id="path3040"
       inkscape:connector-curvature="0"
       style="fill:none" />
    <path
       class="cut"
       d="M 57,0 57,0 43,38 61,54 71,40 54,92 1,82 18,80 12,56 l -39,-6 0,0 -27,-31 -23,8 7,16 -37,-40 35,-41 -7,16 24,7 25,-33 0,0 39,-8 4,-25 -16,-1 51,-13 20,50 L 58,-58 40,-40 57,-3 0,0 57,0 z"
       id="path3042"
       inkscape:connector-curvature="0"
       style="fill:none;stroke:#000000" />
  </g>
</svg>
