<?xml version="1.0" encoding="UTF-8" standalone="no"?>
<svg
   xmlns:dc="http://purl.org/dc/elements/1.1/"
   xmlns:cc="http://creativecommons.org/ns#"
   xmlns:rdf="http://www.w3.org/1999/02/22-rdf-syntax-ns#"
   xmlns:svg="http://www.w3.org/2000/svg"
   xmlns="http://www.w3.org/2000/svg"
   xmlns:sodipodi="http://sodipodi.sourceforge.net/DTD/sodipodi-0.dtd"
   xmlns:inkscape="http://www.inkscape.org/namespaces/inkscape"
   version="1.1"
   width="4989.4595"
   height="2847.5078"
   id="svg3080"
   inkscape:version="0.48.2 r9819"
   sodipodi:docname="cone-sphere.svg">
  <metadata
     id="metadata3173">
    <rdf:RDF>
      <cc:Work
         rdf:about="">
        <dc:format>image/svg+xml</dc:format>
        <dc:type
           rdf:resource="http://purl.org/dc/dcmitype/StillImage" />
        <dc:title></dc:title>
      </cc:Work>
    </rdf:RDF>
  </metadata>
  <defs
     id="defs3171" />
  <sodipodi:namedview
     pagecolor="#ffffff"
     bordercolor="#666666"
     borderopacity="1"
     objecttolerance="10"
     gridtolerance="10"
     guidetolerance="10"
     inkscape:pageopacity="0"
     inkscape:pageshadow="2"
     inkscape:window-width="1920"
     inkscape:window-height="1138"
     id="namedview3169"
     showgrid="false"
     fit-margin-top="10"
     fit-margin-left="10"
     fit-margin-right="10"
     fit-margin-bottom="10"
     inkscape:zoom="0.063"
     inkscape:cx="12625.5"
     inkscape:cy="-3513.9921"
     inkscape:window-x="-8"
     inkscape:window-y="-8"
     inkscape:window-maximized="1"
     inkscape:current-layer="svg3080" />
  <style
     type="text/css"
     id="style3082">
         #diagram { stroke: black; fill: none; }
         #cones { stroke: black; fill: none; }
     </style>
  <g
     id="diagram"
     style="fill:none;stroke:#000000"
     transform="translate(0.5,0.5)" />
  <g
     style="fill:none;stroke:#000000"
     id="cone-1"
     transform="translate(-5306.9603,-5656.1667)">
    <g
       id="g3087"
       transform="translate(6310,6402)">
      <path
         inkscape:connector-curvature="0"
         id="path3089"
         d="m 92,0 a 92,92 0 1 1 0,-2 L 0,0 92,0 z" />
    </g>
  </g>
  <g
     style="fill:none;stroke:#000000"
     id="cone-2"
     transform="translate(-5306.9603,-5656.1667)">
    <g
       id="g3092"
       transform="translate(6310,6402)">
      <path
         inkscape:connector-curvature="0"
         id="path3094"
         d="m 188,0 a 188,188 0 1 1 -5,-44 l -90,22 a 95,95 0 1 0 2,22 l 93,0 z" />
    </g>
  </g>
  <g
     style="fill:none;stroke:#000000"
     id="cone-3"
     transform="translate(-5306.9603,-5656.1667)">
    <g
       id="g3097"
       transform="translate(6310,6402)">
      <path
         inkscape:connector-curvature="0"
         id="path3099"
         d="m 295,0 a 295,295 0 1 1 -62,-180 l -73,56 A 202,202 0 1 0 202,0 l 93,0 z" />
    </g>
  </g>
  <g
     style="fill:none;stroke:#000000"
     id="cone-4"
     transform="translate(-5306.9603,-5656.1667)">
    <g
       id="g3102"
       transform="translate(6310,6402)">
      <path
         inkscape:connector-curvature="0"
         id="path3104"
         d="M 423,0 A 423,423 0 1 1 125,-404 l -27,88 A 331,331 0 1 0 331,0 l 92,0 z" />
    </g>
  </g>
  <g
     style="fill:none;stroke:#000000"
     id="cone-5"
     transform="translate(-5306.9603,-5656.1667)">
    <g
       id="g3107"
       transform="translate(6310,6402)">
      <path
         inkscape:connector-curvature="0"
         id="path3109"
         d="m 594,0 a 594,594 0 1 1 -868,-527 l 43,82 A 502,502 0 1 0 502,0 l 92,0 z" />
    </g>
  </g>
  <g
     style="fill:none;stroke:#000000"
     id="cone-6"
     transform="translate(-5306.9603,-5656.1667)">
    <g
       id="g3112"
       transform="translate(6310,6402)">
      <path
         inkscape:connector-curvature="0"
         id="path3114"
         d="M 853,0 A 853,853 0 1 1 -842,-141 l 92,16 A 761,761 0 1 0 761,0 l 92,0 z" />
    </g>
  </g>
  <g
     style="fill:none;stroke:#000000"
     id="cone-7"
     transform="translate(-5354.5794,-5862.5159)">
    <g
       id="g3117"
       transform="translate(6310,6402)">
      <path
         inkscape:connector-curvature="0"
         id="path3119"
         d="M 1336,0 A 1336,1336 0 0 1 -860,1023 l 60,-71 A 1244,1244 0 0 0 1244,0 l 92,0 z" />
    </g>
  </g>
  <g
     style="fill:none;stroke:#000000"
     id="cone-8"
     transform="translate(-4306.9603,-6179.9762)">
    <g
       id="g3122"
       transform="translate(6310,6402)">
      <path
         inkscape:connector-curvature="0"
         id="path3124"
         d="M 2721,0 A 2721,2721 0 0 1 1100,2488 l -38,-85 A 2628,2628 0 0 0 2628,0 l 93,0 z" />
    </g>
  </g>
  <g
     style="fill:none;stroke:#000000"
     id="cone-9"
     transform="translate(10.5,10.5)">
    <rect
       id="rect3127"
       height="92"
       width="3155"
       y="0"
       x="0" />
  </g>
  <g
     style="fill:none;stroke:#000000"
     id="cone-10"
     transform="translate(-16672.04,-6052.9921)">
    <g
       id="g3130"
       transform="translate(18930,6402)">
      <path
         inkscape:connector-curvature="0"
         id="path3132"
         d="M 2721,0 A 2721,2721 0 0 1 1100,2488 l -38,-85 A 2628,2628 0 0 0 2628,0 l 93,0 z" />
    </g>
  </g>
  <g
     style="fill:none;stroke:#000000"
     id="cone-11"
     transform="translate(-15846.643,-5703.7858)">
    <g
       id="g3135"
       transform="translate(18930,6402)">
      <path
         inkscape:connector-curvature="0"
         id="path3137"
         d="M 1336,0 A 1336,1336 0 0 1 -860,1023 l 60,-71 A 1244,1244 0 0 0 1244,0 l 92,0 z" />
    </g>
  </g>
  <g
     style="fill:none;stroke:#000000"
     id="cone-12"
     transform="translate(-15576.802,-5640.2937)">
    <g
       id="g3140"
       transform="translate(18930,6402)">
      <path
         inkscape:connector-curvature="0"
         id="path3142"
         d="M 853,0 A 853,853 0 1 1 -842,-141 l 92,16 A 761,761 0 1 0 761,0 l 92,0 z" />
    </g>
  </g>
  <g
     style="fill:none;stroke:#000000"
     id="cone-13"
     transform="translate(-15576.802,-5640.2937)">
    <g
       id="g3145"
       transform="translate(18930,6402)">
      <path
         inkscape:connector-curvature="0"
         id="path3147"
         d="m 594,0 a 594,594 0 1 1 -868,-527 l 43,82 A 502,502 0 1 0 502,0 l 92,0 z" />
    </g>
  </g>
  <g
     style="fill:none;stroke:#000000"
     id="cone-14"
     transform="translate(-15576.802,-5640.2937)">
    <g
       id="g3150"
       transform="translate(18930,6402)">
      <path
         inkscape:connector-curvature="0"
         id="path3152"
         d="M 423,0 A 423,423 0 1 1 125,-404 l -27,88 A 331,331 0 1 0 331,0 l 92,0 z" />
    </g>
  </g>
  <g
     style="fill:none;stroke:#000000"
     id="cone-15"
     transform="translate(-15576.802,-5640.2937)">
    <g
       id="g3155"
       transform="translate(18930,6402)">
      <path
         inkscape:connector-curvature="0"
         id="path3157"
         d="m 295,0 a 295,295 0 1 1 -62,-180 l -73,56 A 202,202 0 1 0 202,0 l 93,0 z" />
    </g>
  </g>
  <g
     style="fill:none;stroke:#000000"
     id="cone-16"
     transform="translate(-15576.802,-5640.2937)">
    <g
       id="g3160"
       transform="translate(18930,6402)">
      <path
         inkscape:connector-curvature="0"
         id="path3162"
         d="m 188,0 a 188,188 0 1 1 -5,-44 l -90,22 a 95,95 0 1 0 2,22 l 93,0 z" />
    </g>
  </g>
  <g
     style="fill:none;stroke:#000000"
     id="cone-17"
     transform="translate(-15576.802,-5640.2937)">
    <g
       id="g3165"
       transform="translate(18930,6402)">
      <path
         inkscape:connector-curvature="0"
         id="path3167"
         d="m 92,0 a 92,92 0 1 1 0,-2 L 0,0 92,0 z" />
    </g>
  </g>
</svg>
